<mxfile host="app.diagrams.net" modified="2020-09-27T14:09:01.123Z" agent="5.0 (Windows)" etag="_QA2ljlJ7d9M39L6uxoB" version="13.7.5" type="github">
  <diagram id="1DJoSMpmVe1PBzs5LV6L" name="Page-1">
    <mxGraphModel dx="1673" dy="898" grid="1" gridSize="10" guides="1" tooltips="1" connect="1" arrows="1" fold="1" page="1" pageScale="1" pageWidth="827" pageHeight="1169" math="0" shadow="0">
      <root>
        <mxCell id="0" />
        <mxCell id="1" parent="0" />
        <mxCell id="S-mG011iiMMuwMTmMiyn-3" value="" style="verticalLabelPosition=bottom;verticalAlign=top;html=1;shape=mxgraph.basic.diag_snip_rect;dx=6;sketch=1;fillColor=#fad7ac;strokeColor=#b46504;strokeWidth=2;" vertex="1" parent="1">
          <mxGeometry x="620" y="355" width="420" height="470" as="geometry" />
        </mxCell>
        <mxCell id="S-mG011iiMMuwMTmMiyn-5" value="" style="verticalLabelPosition=bottom;verticalAlign=top;html=1;shape=mxgraph.basic.diag_stripe;dx=10;sketch=1;strokeWidth=2;rotation=15;fillColor=#FFD966;strokeColor=#CC6600;" vertex="1" parent="1">
          <mxGeometry x="210" y="280" width="248.88" height="68.73" as="geometry" />
        </mxCell>
        <mxCell id="S-mG011iiMMuwMTmMiyn-6" value="" style="verticalLabelPosition=bottom;verticalAlign=top;html=1;shape=mxgraph.basic.frame;dx=10;sketch=1;strokeColor=#CC6600;strokeWidth=2;fillColor=none;" vertex="1" parent="1">
          <mxGeometry x="154" y="140" width="520" height="140" as="geometry" />
        </mxCell>
        <mxCell id="S-mG011iiMMuwMTmMiyn-9" value="" style="pointerEvents=1;shadow=0;dashed=0;html=1;strokeColor=#b46504;fillColor=#fad7ac;labelPosition=center;verticalLabelPosition=bottom;verticalAlign=top;outlineConnect=0;align=center;shape=mxgraph.office.concepts.folder;sketch=1;" vertex="1" parent="1">
          <mxGeometry x="90" y="440" width="473" height="430" as="geometry" />
        </mxCell>
        <mxCell id="S-mG011iiMMuwMTmMiyn-10" value="" style="pointerEvents=1;shadow=0;dashed=0;html=1;strokeColor=#b46504;labelPosition=center;verticalLabelPosition=bottom;verticalAlign=top;outlineConnect=0;align=center;shape=mxgraph.office.concepts.document;sketch=1;fillColor=#FFFFFF;" vertex="1" parent="1">
          <mxGeometry x="123.44" y="540" width="102.13" height="120" as="geometry" />
        </mxCell>
        <mxCell id="S-mG011iiMMuwMTmMiyn-11" value="" style="pointerEvents=1;shadow=0;dashed=0;html=1;strokeColor=#b46504;labelPosition=center;verticalLabelPosition=bottom;verticalAlign=top;outlineConnect=0;align=center;shape=mxgraph.office.concepts.document;sketch=1;fillColor=#FFFFFF;" vertex="1" parent="1">
          <mxGeometry x="273.44" y="540" width="102.13" height="120" as="geometry" />
        </mxCell>
        <mxCell id="S-mG011iiMMuwMTmMiyn-12" value="" style="pointerEvents=1;shadow=0;dashed=0;html=1;strokeColor=#b46504;labelPosition=center;verticalLabelPosition=bottom;verticalAlign=top;outlineConnect=0;align=center;shape=mxgraph.office.concepts.document;sketch=1;fillColor=#FFFFFF;" vertex="1" parent="1">
          <mxGeometry x="427.44" y="540" width="102.13" height="120" as="geometry" />
        </mxCell>
        <mxCell id="S-mG011iiMMuwMTmMiyn-13" value="" style="pointerEvents=1;shadow=0;dashed=0;html=1;strokeColor=#b46504;labelPosition=center;verticalLabelPosition=bottom;verticalAlign=top;outlineConnect=0;align=center;shape=mxgraph.office.concepts.document;sketch=1;fillColor=#FFFFFF;" vertex="1" parent="1">
          <mxGeometry x="121.44" y="700" width="102.13" height="120" as="geometry" />
        </mxCell>
        <mxCell id="S-mG011iiMMuwMTmMiyn-14" value="" style="pointerEvents=1;shadow=0;dashed=0;html=1;strokeColor=#b46504;labelPosition=center;verticalLabelPosition=bottom;verticalAlign=top;outlineConnect=0;align=center;shape=mxgraph.office.concepts.document;sketch=1;fillColor=#FFFFFF;" vertex="1" parent="1">
          <mxGeometry x="271.44" y="700" width="102.13" height="120" as="geometry" />
        </mxCell>
        <mxCell id="S-mG011iiMMuwMTmMiyn-15" value="" style="pointerEvents=1;shadow=0;dashed=0;html=1;strokeColor=#b46504;labelPosition=center;verticalLabelPosition=bottom;verticalAlign=top;outlineConnect=0;align=center;shape=mxgraph.office.concepts.document;sketch=1;fillColor=#FFFFFF;" vertex="1" parent="1">
          <mxGeometry x="425.44" y="700" width="102.13" height="120" as="geometry" />
        </mxCell>
        <mxCell id="S-mG011iiMMuwMTmMiyn-17" value="" style="shape=callout;whiteSpace=wrap;html=1;perimeter=calloutPerimeter;sketch=1;strokeColor=#CC6600;strokeWidth=2;fillColor=#FFD966;shadow=0;rounded=0;" vertex="1" parent="1">
          <mxGeometry x="1090" y="70" width="400" height="266.67" as="geometry" />
        </mxCell>
        <mxCell id="S-mG011iiMMuwMTmMiyn-18" value="" style="shape=callout;whiteSpace=wrap;html=1;perimeter=calloutPerimeter;sketch=1;strokeColor=#CC6600;strokeWidth=2;shadow=0;rounded=0;fillColor=none;" vertex="1" parent="1">
          <mxGeometry x="1100" y="451" width="400" height="266.67" as="geometry" />
        </mxCell>
        <mxCell id="S-mG011iiMMuwMTmMiyn-20" value="" style="shadow=0;dashed=0;html=1;labelPosition=center;verticalLabelPosition=bottom;verticalAlign=top;outlineConnect=0;align=center;shape=mxgraph.office.databases.database_cube;rounded=0;sketch=1;fillColor=#FFD966;strokeColor=#CC6600;" vertex="1" parent="1">
          <mxGeometry x="273.44" y="919.7" width="173.54" height="192" as="geometry" />
        </mxCell>
        <mxCell id="S-mG011iiMMuwMTmMiyn-22" value="" style="pointerEvents=1;shadow=0;dashed=0;html=1;strokeColor=#b46504;fillColor=#fad7ac;labelPosition=center;verticalLabelPosition=bottom;verticalAlign=top;outlineConnect=0;align=center;shape=mxgraph.office.concepts.folder;sketch=1;" vertex="1" parent="1">
          <mxGeometry x="20" y="900" width="231" height="210" as="geometry" />
        </mxCell>
        <mxCell id="S-mG011iiMMuwMTmMiyn-23" value="" style="pointerEvents=1;shadow=0;dashed=0;html=1;labelPosition=center;verticalLabelPosition=bottom;verticalAlign=top;outlineConnect=0;align=center;shape=mxgraph.office.communications.exchange_active_sync;rounded=0;sketch=1;strokeColor=#CC6600;fillColor=#FFFFFF;" vertex="1" parent="1">
          <mxGeometry x="40" y="960" width="49" height="49" as="geometry" />
        </mxCell>
        <mxCell id="S-mG011iiMMuwMTmMiyn-24" value="" style="pointerEvents=1;shadow=0;dashed=0;html=1;labelPosition=center;verticalLabelPosition=bottom;verticalAlign=top;outlineConnect=0;align=center;shape=mxgraph.office.concepts.contacts;rounded=0;sketch=1;fillColor=#FFFFFF;strokeColor=#CC6600;" vertex="1" parent="1">
          <mxGeometry x="153" y="996" width="87.41" height="64.32" as="geometry" />
        </mxCell>
        <mxCell id="S-mG011iiMMuwMTmMiyn-25" value="" style="pointerEvents=1;shadow=0;dashed=0;html=1;labelPosition=center;verticalLabelPosition=bottom;verticalAlign=top;outlineConnect=0;align=center;shape=mxgraph.office.concepts.settings_office_365;rounded=0;sketch=1;fillColor=#FFFFFF;strokeColor=#CC6600;" vertex="1" parent="1">
          <mxGeometry x="34.56999999999999" y="1030" width="61" height="61" as="geometry" />
        </mxCell>
        <mxCell id="S-mG011iiMMuwMTmMiyn-26" value="" style="pointerEvents=1;shadow=0;dashed=0;html=1;labelPosition=center;verticalLabelPosition=bottom;verticalAlign=top;outlineConnect=0;align=center;shape=mxgraph.office.concepts.connector;rounded=0;sketch=1;fillColor=#FFFFFF;strokeColor=#CC6600;" vertex="1" parent="1">
          <mxGeometry x="93.57" y="1010" width="48.13" height="35" as="geometry" />
        </mxCell>
        <mxCell id="S-mG011iiMMuwMTmMiyn-27" value="" style="pointerEvents=1;shadow=0;dashed=0;html=1;labelPosition=center;verticalLabelPosition=bottom;verticalAlign=top;align=center;shape=mxgraph.mscae.oms.dependency_monitor;rounded=0;sketch=1;strokeColor=#CC6600;fillColor=#FFD966;" vertex="1" parent="1">
          <mxGeometry x="470" y="897.1999999999999" width="220" height="215.6" as="geometry" />
        </mxCell>
        <mxCell id="S-mG011iiMMuwMTmMiyn-28" value="" style="pointerEvents=1;shadow=0;dashed=0;html=1;labelPosition=center;verticalLabelPosition=bottom;verticalAlign=top;outlineConnect=0;align=center;shape=mxgraph.office.concepts.upgrade_site;rounded=0;sketch=1;fillColor=#FFD966;strokeColor=#CC6600;" vertex="1" parent="1">
          <mxGeometry x="740" y="920" width="243.98" height="198.49" as="geometry" />
        </mxCell>
        <mxCell id="S-mG011iiMMuwMTmMiyn-30" value="" style="pointerEvents=1;shadow=0;dashed=0;html=1;labelPosition=center;verticalLabelPosition=bottom;verticalAlign=top;outlineConnect=0;align=center;shape=mxgraph.office.sites.business_connectivity_services;rounded=0;sketch=1;fillColor=#FFD966;strokeColor=#CC6600;" vertex="1" parent="1">
          <mxGeometry x="1050" y="930" width="113.33" height="170" as="geometry" />
        </mxCell>
        <mxCell id="S-mG011iiMMuwMTmMiyn-34" value="" style="pointerEvents=1;shadow=0;dashed=0;html=1;strokeColor=none;fillColor=#505050;labelPosition=center;verticalLabelPosition=bottom;verticalAlign=top;outlineConnect=0;align=center;shape=mxgraph.office.concepts.migration;rounded=0;sketch=1;" vertex="1" parent="1">
          <mxGeometry x="500" y="600" width="59" height="34" as="geometry" />
        </mxCell>
        <mxCell id="S-mG011iiMMuwMTmMiyn-35" value="" style="pointerEvents=1;shadow=0;dashed=0;html=1;labelPosition=center;verticalLabelPosition=bottom;verticalAlign=top;outlineConnect=0;align=center;shape=mxgraph.office.concepts.migration;rounded=0;sketch=1;fillColor=#FFD966;strokeColor=#CC6600;" vertex="1" parent="1">
          <mxGeometry x="34.57" y="355" width="214.01" height="123.33" as="geometry" />
        </mxCell>
        <mxCell id="S-mG011iiMMuwMTmMiyn-36" value="" style="shadow=0;dashed=0;html=1;labelPosition=center;verticalLabelPosition=bottom;verticalAlign=top;outlineConnect=0;align=center;shape=mxgraph.office.databases.unified_contact_store;rounded=0;sketch=1;fillColor=#FFD966;strokeColor=#CC6600;" vertex="1" parent="1">
          <mxGeometry x="1230" y="930" width="166.91" height="170" as="geometry" />
        </mxCell>
        <mxCell id="S-mG011iiMMuwMTmMiyn-37" value="" style="shape=mxgraph.bpmn.shape;html=1;verticalLabelPosition=bottom;labelBackgroundColor=#ffffff;verticalAlign=top;align=center;perimeter=ellipsePerimeter;outlineConnect=0;outline=eventInt;symbol=conditional;rounded=0;shadow=0;sketch=1;strokeColor=#CC6600;strokeWidth=2;fillColor=#FFD966;" vertex="1" parent="1">
          <mxGeometry x="1450" y="930.32" width="149.68" height="149.68" as="geometry" />
        </mxCell>
      </root>
    </mxGraphModel>
  </diagram>
</mxfile>
